#!OML:ASF F:\VICON\USERDATA\INSTALL\rory3\rory3.ASF
:FULLY-SPECIFIED
:DEGREES
486
root 4.0567 15.9703 -6.00449 38.1175 -44.7312 -14.3048
lowerback -5.34591 2.85937 -2.01045
upperback -7.04333 3.65514 -3.54144
thorax -4.19705 1.7881 -2.48212
lowerneck -10.019 1.77464 6.25511
upperneck 37.4487 -1.09172 3.74652
head 14.6873 0.624124 0.205109
rclavicle 3.26007e-014 3.65764e-014
rhumerus 75.2897 -23.9881 -41.1256
rradius 27.8383
rwrist -0.806317
rhand 29.0201 -6.46718
rfingers 7.12502
rthumb 52.8238 -26.0705
lclavicle 3.26007e-014 3.65764e-014
lhumerus -50.3289 45.416 22.6097
lradius 11.6924
lwrist -81.1664
lhand -9.43073 24.1136
lfingers 7.12502
lthumb 16.5318 53.4294
rfemur 156.977 -185.985 -147.809
rtibia 37.1117
rfoot -31.1915 -27.864
rtoes -11.0208
lfemur -73.3438 22.4898 -37.6209
ltibia 56.2202
lfoot -43.5005 32.9514
ltoes 23.1175
487
root 4.08762 15.9576 -6.12374 35.7593 -44.782 -12.5252
lowerback -3.78455 2.51681 -3.38467
upperback -7.01461 3.13192 -3.70229
thorax -5.13469 1.58614 -1.97481
lowerneck -9.74495 1.75002 6.22991
upperneck 37.6856 -1.23253 4.0082
head 14.7439 0.589114 0.297795
rclavicle 5.96354e-014 -7.95139e-015
rhumerus 75.6344 -24.1124 -40.1648
rradius 28.4897
rwrist -2.47292
rhand 29.8572 -6.90138
rfingers 7.12502
rthumb 53.5785 -26.0204
lclavicle 5.96354e-014 -7.95139e-015
lhumerus -52.1458 45.7124 21.419
lradius 11.4191
lwrist -83.2903
lhand -8.65825 23.7062
lfingers 7.12502
lthumb 17.2754 52.9583
rfemur 156.858 -186.923 -148.338
rtibia 37.6424
rfoot -32.7256 -28.3043
rtoes -4.05296
lfemur -72.0966 21.9255 -38.0623
ltibia 55.998
lfoot -43.7056 32.6516
ltoes 24.429
488
root 4.06308 15.9732 -6.05327 36.4813 -45.777 -13.0855
lowerback -6.20195 2.83941 -2.61659
upperback -6.96961 3.66346 -3.88642
thorax -3.66077 1.80583 -2.45145
lowerneck -9.62169 1.75803 5.97397
upperneck 38.1561 -1.38384 4.4791
head 14.9531 0.550074 0.523211
rclavicle 2.3059e-014 -1.27222e-014
rhumerus 75.8134 -24.3095 -38.8411
rradius 29.0618
rwrist -4.03069
rhand 30.8866 -6.13452
rfingers 7.12502
rthumb 54.5022 -24.6272
lclavicle 2.3059e-014 -1.27222e-014
lhumerus -53.5271 45.5667 20.8171
lradius 10.9533
lwrist -84.232
lhand -8.52941 23.5463
lfingers 7.12502
lthumb 17.3994 52.7876
rfemur 156.277 -186.165 -148.293
rtibia 37.8566
rfoot -32.7817 -28.1866
rtoes -3.21982
lfemur -72.337 22.9732 -38.5914
ltibia 56.0443
lfoot -44.239 32.0063
ltoes 25.0321
489
root 4.10073 15.9517 -6.1742 35.1802 -45.3164 -12.201
lowerback -4.88678 2.47985 -3.19893
upperback -7.17751 3.11898 -3.80179
thorax -4.66897 1.56241 -2.13095
lowerneck -9.61496 1.76615 5.83661
upperneck 38.7506 -1.56929 4.88341
head 15.2577 0.508465 0.701467
rclavicle 3.53837e-014 -1.27222e-014
rhumerus 75.6896 -24.5137 -37.061
rradius 29.6971
rwrist -5.46492
rhand 31.639 -5.1097
rfingers 7.12502
rthumb 55.1742 -23.1217
lclavicle 3.53837e-014 -1.27222e-014
lhumerus -55.455 45.7833 19.4068
lradius 10.352
lwrist -85.6359
lhand -8.57092 23.2251
lfingers 7.12502
lthumb 17.3594 52.4698
rfemur 155.85 -185.826 -147.809
rtibia 38.2801
rfoot -33.9975 -31.0088
rtoes -2.76301
lfemur -71.7438 22.2392 -38.338
ltibia 55.8106
lfoot -43.9168 32.3343
ltoes 25.2429
490
root 4.12229 15.9487 -6.24781 34.3985 -45.0317 -11.796
lowerback -4.39466 2.20648 -3.27951
upperback -7.2566 2.72472 -3.71016
thorax -5.04386 1.37211 -2.01916
lowerneck -9.43809 1.86238 5.95976
upperneck 38.9786 -1.48526 4.8956
head 15.334 0.559156 0.700303
rclavicle -5.12864e-014 2.06736e-014
rhumerus 76.1014 -24.6712 -35.9898
rradius 30.2567
rwrist -6.64789
rhand 31.9834 -4.6967
rfingers 7.12502
rthumb 55.4807 -22.4819
lclavicle -5.12864e-014 2.06736e-014
lhumerus -53.5887 43.083 23.523
lradius 9.95246
lwrist -82.2345
lhand -7.2927 23.4044
lfingers 7.12502
lthumb 18.5893 52.5362
rfemur 155.817 -185.06 -147.329
rtibia 38.3296
rfoot -35.501 -31.8983
rtoes 0.0108812
lfemur -71.2598 21.9023 -38.0585
ltibia 55.7283
lfoot -44.003 32.0953
ltoes 25.7716
